<?xml version="1.0" encoding="UTF-8" standalone="no"?>
<svg
   xmlns:dc="http://purl.org/dc/elements/1.1/"
   xmlns:cc="http://creativecommons.org/ns#"
   xmlns:rdf="http://www.w3.org/1999/02/22-rdf-syntax-ns#"
   xmlns:svg="http://www.w3.org/2000/svg"
   xmlns="http://www.w3.org/2000/svg"
   xmlns:sodipodi="http://sodipodi.sourceforge.net/DTD/sodipodi-0.dtd"
   xmlns:inkscape="http://www.inkscape.org/namespaces/inkscape"
   inkscape:version="1.0rc1 (09960d6, 2020-04-09)"
   sodipodi:docname="letter_s.svg"
   id="svg1436"
   version="1.1"
   viewBox="0 0 7.9099388 10.631564"
   height="10.631564mm"
   width="7.9099388mm">
  <defs
     id="defs1430">
    <rect
       id="rect2001"
       height="198.81548"
       width="148.16667"
       y="48.380951"
       x="33.261906" />
  </defs>
  <sodipodi:namedview
     inkscape:window-maximized="0"
     inkscape:window-y="25"
     inkscape:window-x="0"
     inkscape:window-height="1387"
     inkscape:window-width="2560"
     showgrid="false"
     inkscape:document-rotation="0"
     inkscape:current-layer="layer1"
     inkscape:document-units="mm"
     inkscape:cy="367.96476"
     inkscape:cx="270.79683"
     inkscape:zoom="1"
     inkscape:pageshadow="2"
     inkscape:pageopacity="0.0"
     borderopacity="1.0"
     bordercolor="#666666"
     pagecolor="#ffffff"
     id="base" />
  <metadata
     id="metadata1433">
    <rdf:RDF>
      <cc:Work
         rdf:about="">
        <dc:format>image/svg+xml</dc:format>
        <dc:type
           rdf:resource="http://purl.org/dc/dcmitype/StillImage" />
      </cc:Work>
    </rdf:RDF>
  </metadata>
  <g
     transform="translate(-34.185004,-50.809324)"
     id="layer1"
     inkscape:groupmode="layer"
     inkscape:label="Layer 1">
    <g
       style="font-style:normal;font-variant:normal;font-weight:normal;font-stretch:normal;font-size:14.1111px;line-height:1.25;font-family:Rosario;-inkscape-font-specification:Rosario;white-space:pre;shape-inside:url(#rect2001);fill:#000000;fill-opacity:1;stroke:none"
       id="text1999"
       aria-label="S">
      <path
         id="path2068"
         style="fill:#ffffff;fill-opacity:0.5"
         d="m 42.094937,58.326515 q 0,0.599446 -0.282498,1.185112 -0.275607,0.585666 -0.778591,0.992187 -0.551215,0.440972 -1.288465,0.689018 -0.730359,0.248047 -1.763887,0.248047 -1.10932,0 -1.998154,-0.206706 -0.881944,-0.206705 -1.798338,-0.613226 v -1.708766 h 0.09646 q 0.778591,0.647677 1.798339,0.999077 1.019747,0.351399 1.915471,0.351399 1.267794,0 1.970593,-0.475423 0.70969,-0.475422 0.70969,-1.267794 0,-0.682128 -0.33762,-1.005967 -0.330729,-0.323839 -1.012857,-0.502983 -0.516764,-0.137804 -1.1231,-0.227377 -0.599446,-0.08957 -1.274684,-0.227376 -1.364257,-0.289388 -2.025715,-0.985296 -0.654568,-0.702799 -0.654568,-1.825899 0,-1.288465 1.08865,-2.108397 1.088649,-0.826823 2.762964,-0.826823 1.081759,0 1.984374,0.206706 0.902614,0.206706 1.598523,0.509874 v 1.612303 h -0.09646 q -0.585666,-0.496093 -1.543402,-0.819932 -0.950845,-0.330729 -1.949922,-0.330729 -1.09554,0 -1.763888,0.454752 -0.661457,0.454753 -0.661457,1.171332 0,0.640787 0.330728,1.005967 0.330729,0.36518 1.164442,0.558105 0.440972,0.09646 1.254014,0.234266 0.813042,0.137804 1.378037,0.282498 1.143771,0.303168 1.722546,0.916395 0.578776,0.613226 0.578776,1.715656 z" />
    </g>
  </g>
</svg>
