<?xml version="1.0" encoding="UTF-8" standalone="no"?>
<svg
   xmlns:dc="http://purl.org/dc/elements/1.1/"
   xmlns:cc="http://creativecommons.org/ns#"
   xmlns:rdf="http://www.w3.org/1999/02/22-rdf-syntax-ns#"
   xmlns:svg="http://www.w3.org/2000/svg"
   xmlns="http://www.w3.org/2000/svg"
   xmlns:sodipodi="http://sodipodi.sourceforge.net/DTD/sodipodi-0.dtd"
   xmlns:inkscape="http://www.inkscape.org/namespaces/inkscape"
   inkscape:version="1.0rc1 (09960d6, 2020-04-09)"
   sodipodi:docname="notes2.svg"
   id="svg899"
   version="1.1"
   viewBox="0 0 629.07269 646.03821">
  <metadata
     id="metadata905">
    <rdf:RDF>
      <cc:Work
         rdf:about="">
        <dc:format>image/svg+xml</dc:format>
        <dc:type
           rdf:resource="http://purl.org/dc/dcmitype/StillImage" />
        <dc:title></dc:title>
      </cc:Work>
    </rdf:RDF>
  </metadata>
  <defs
     id="defs903" />
  <sodipodi:namedview
     inkscape:current-layer="svg899"
     inkscape:window-maximized="0"
     inkscape:window-y="23"
     inkscape:window-x="0"
     inkscape:cy="97.004965"
     inkscape:cx="314.53634"
     inkscape:zoom="1.0618805"
     showgrid="false"
     id="namedview901"
     inkscape:window-height="1395"
     inkscape:window-width="2560"
     inkscape:pageshadow="2"
     inkscape:pageopacity="0"
     guidetolerance="10"
     gridtolerance="10"
     objecttolerance="10"
     borderopacity="1"
     bordercolor="#666666"
     pagecolor="#ffffff" />
  <g
     style="opacity:0.2"
     id="g897"
     transform="translate(56.902 -356.79)">
    <g
       id="g853"
       transform="matrix(.98481 -.17365 .17365 .98481 -204.71 -19.959)">
      <path
         id="path833"
         stroke-width="8"
         stroke="#000"
         fill="#f9f9f9"
         d="m71.721 467.48h386.89v531.34h-386.89z" />
      <g
         id="g851"
         transform="translate(0 15.464)">
        <path
           id="path835"
           d="m110.11 523.04h273.75v29.294h-273.75z" />
        <path
           id="path837"
           d="m110.11 569.04h236.38v29.294h-236.38z" />
        <path
           id="path839"
           d="m110.11 615.04h266.68v29.294h-266.68z" />
        <path
           id="path841"
           d="m110.11 661.04h201.02v29.294h-201.02z" />
        <path
           id="path843"
           d="m110.11 735.04h269.71v29.294h-269.71z" />
        <path
           id="path845"
           d="m110.11 785.04h253.55v29.294h-253.55z" />
        <path
           id="path847"
           d="m110.11 833.04h279.81v29.294h-279.81z" />
        <path
           id="path849"
           d="m110.11 883.04h173.75v29.294h-173.75z" />
      </g>
    </g>
    <g
       id="g875"
       transform="matrix(.99619 .08716 -.08716 .99619 152.05 -43.178)">
      <path
         id="path855"
         stroke-width="8"
         stroke="#000"
         fill="#f9f9f9"
         d="m71.721 467.48h386.89v531.34h-386.89z" />
      <g
         id="g873"
         transform="translate(0 15.464)">
        <path
           id="path857"
           d="m110.11 523.04h273.75v29.294h-273.75z" />
        <path
           id="path859"
           d="m110.11 569.04h236.38v29.294h-236.38z" />
        <path
           id="path861"
           d="m110.11 615.04h266.68v29.294h-266.68z" />
        <path
           id="path863"
           d="m110.11 661.04h201.02v29.294h-201.02z" />
        <path
           id="path865"
           d="m110.11 735.04h269.71v29.294h-269.71z" />
        <path
           id="path867"
           d="m110.11 785.04h253.55v29.294h-253.55z" />
        <path
           id="path869"
           d="m110.11 833.04h279.81v29.294h-279.81z" />
        <path
           id="path871"
           d="m110.11 883.04h173.75v29.294h-173.75z" />
      </g>
    </g>
    <path
       id="path877"
       stroke-width="8"
       stroke="#000"
       fill="#f9f9f9"
       d="m71.721 467.48h386.89v531.34h-386.89z" />
    <g
       id="g895"
       transform="translate(0 15.464)">
      <path
         id="path879"
         d="m110.11 523.04h273.75v29.294h-273.75z" />
      <path
         id="path881"
         d="m110.11 569.04h236.38v29.294h-236.38z" />
      <path
         id="path883"
         d="m110.11 615.04h266.68v29.294h-266.68z" />
      <path
         id="path885"
         d="m110.11 661.04h201.02v29.294h-201.02z" />
      <path
         id="path887"
         d="m110.11 735.04h269.71v29.294h-269.71z" />
      <path
         id="path889"
         d="m110.11 785.04h253.55v29.294h-253.55z" />
      <path
         id="path891"
         d="m110.11 833.04h279.81v29.294h-279.81z" />
      <path
         id="path893"
         d="m110.11 883.04h173.75v29.294h-173.75z" />
    </g>
  </g>
</svg>
